<svg xmlns="http://www.w3.org/2000/svg" width="85" height="22" fill="currentColor" viewBox="0 0 85 22">
  <path d="M9.617 2.238v10.593c0 .634-.187 1.418-.674 1.604-.15.112-.112.522-.075.634.86-.074 1.834-.074 2.582-.074.748 0 1.497.037 2.32.074.037-.112.075-.522-.075-.634-.486-.26-.561-1.119-.561-1.604V2.574c0-.485 0-1.38.449-1.604.15-.112.112-.522.075-.634H3.368c-.038.112-.075.522.075.634.673.186.56 2.014.56 2.872 0 2.686-.149 8.654-2.656 8.654-.187 0-.561 0-.823-.075L0 14.846c.524.149 1.01.223 1.422.223 5.051 0 4.79-7.646 4.79-12.682 0-.112.074-.149.15-.149h3.255ZM27.54.298l-6.062 10.706V2.462c0-.485 0-1.38.45-1.604.15-.112.112-.522.074-.634-.86.074-1.31.074-2.095.074-.749 0-1.497-.037-2.32-.074-.038.112-.075.522.075.634.486.261.56 1.119.56 1.604v10.332c0 .485 0 1.38-.448 1.604-.15.112-.112.522-.075.634 1.16-.037 2.357-.037 3.517-.037.45-.485 1.235-1.604 2.021-3.059 1.31-2.35 2.732-4.737 4.079-7.05v7.908c0 .485 0 1.38-.45 1.604-.149.112-.112.522-.074.634.86-.075 1.31-.075 2.095-.075.749 0 1.497.038 2.32.075.038-.112.075-.522-.075-.634-.486-.261-.56-1.12-.56-1.604V2.536c0-.484 0-1.38.448-1.603.15-.112.112-.523.075-.635H27.54Zm15.454 14.547h.674l4.228-8.989c.112 2.425.262 4.625.374 7.05 0 .522 0 1.156-.486 1.53-.112.148-.038.559-.038.633a31.047 31.047 0 0 1 4.94 0c.037-.074.075-.597-.038-.634-.449-.224-.598-.932-.673-1.53l-.749-9.548c-.15-1.567-.075-2.35.337-2.462.112-.186.075-.447 0-.634-.486.037-1.122.075-1.721.075-.487 0-.973-.038-1.385-.075l-4.453 9.25-4.49-9.25c-.561.037-1.122.075-1.609.075-.561 0-1.085-.038-1.609-.075-.075.112-.037.56.038.634.598.112.374 1.53.299 2.387l-.898 9.661c-.037.784-.412 1.306-.786 1.492-.112.15-.037.56-.037.634 1.272-.149 2.47-.074 3.667 0 .037-.112.112-.447 0-.634-.487-.26-.674-.783-.599-1.604.15-2.312.337-4.662.45-7.012l4.564 9.026ZM56.502.298c-.037.112-.075.523.075.635.487.26.562 1.119.562 1.603v10.258c0 .485-.038 1.38-.524 1.604-.15.112-.075.522-.075.634h4.827c4.303-.037 6.922-1.492 6.922-4.476 0-3.32-3.667-4.364-6.66-4.364-.374 0-.636.037-.936.037V2.126c0-.074.038-.15.113-.15h1.72c1.797 0 3.406.56 4.005 1.791.15.15.486.075.748 0-.075-1.081-.075-2.387-.112-3.506H56.502v.037Zm5.5 13.13c-.785 0-1.309-.224-1.309-.895V7.796c2.657.074 3.93 1.268 3.93 3.133 0 1.604-1.086 2.5-2.62 2.5Zm15.904.298c-2.956 0-3.293-4.103-3.293-6.005 0-1.902.337-6.117 3.293-6.117s3.293 4.103 3.293 6.005c.037 1.865-.3 6.117-3.293 6.117Zm0 1.642c5.613 0 6.96-4.215 6.96-7.759 0-3.506-1.422-7.609-6.96-7.609-5.613 0-6.96 4.215-6.96 7.758.038 3.507 1.46 7.61 6.96 7.61ZM7.895 20.067l1.123 1.567c.337-.037.636 0 .973 0 0-.037.037-.112 0-.15-.15-.074-.262-.223-.374-.335L8.53 19.732l.749-.895c.15-.187.262-.299.411-.373.038 0 .038-.112 0-.15h-.673c-.149.262-.373.523-.598.784l-.561.671v-.97c0-.112 0-.298.112-.373.038-.037.038-.112.038-.149-.187 0-.375.037-.524.037-.187 0-.337 0-.524-.037 0 .037-.038.112 0 .15.112.074.112.26.112.372v2.35c0 .112 0 .299-.112.373-.038.038-.038.112-.038.15.188 0 .375-.038.524-.038.187 0 .337 0 .524.037 0-.037.038-.111 0-.149-.112-.074-.112-.26-.112-.373v-1.082h.037Zm4.341-1.417c.374 0 .561.112.561.41 0 .373-.224.635-.786.672v-.933c0-.112.075-.149.225-.149Zm.075 2.648c-.187 0-.3-.074-.3-.26v-.97c.637.037.899.298.899.708 0 .261-.188.522-.6.522Zm-.15.373c.973-.037 1.572-.373 1.572-1.007 0-.373-.262-.708-.898-.858.486-.149.785-.447.785-.783 0-.447-.374-.709-1.234-.709h-1.31c0 .038-.037.112 0 .15.112.074.112.26.112.373v2.312c0 .112 0 .299-.112.373a.113.113 0 0 0 0 .15h1.085Zm3.892-.373c-.038 0-.038 0 0 0l-.038-1.23h.15c.224 0 .599 0 .86.074-.037-.075-.037-.186-.037-.261 0-.075 0-.186.038-.261-.262.075-.6.075-.861.075h-.15v-1.008c0-.037 0-.037.038-.037h.15c.336 0 .86.037 1.047.41h.15c-.038-.223-.038-.522-.038-.746H15.08c0 .038-.038.112 0 .15.112.074.112.26.112.373v2.312c0 .112 0 .299-.112.373-.038.038-.038.112-.038.15h2.283c0-.262.037-.56.075-.821h-.15c-.224.373-.786.447-1.122.447h-.075Zm5.127-.559c-.15.373-.413.522-.787.522-.86 0-.935-.709-.935-1.268 0-.709.262-1.343.898-1.343.262 0 .561.075.673.56.075 0 .15.037.225 0 0-.224.037-.448.075-.71a2.073 2.073 0 0 0-.936-.26c-1.122 0-1.721.634-1.721 1.828 0 .97.486 1.64 1.609 1.64.374 0 .786-.074 1.085-.26a4.49 4.49 0 0 0 .075-.71c-.15-.036-.224-.036-.262 0Zm1.047-2.425c0 .262 0 .56-.038.784.075.037.15.037.15 0 .15-.224.374-.41.786-.41h.075c.037 0 .037 0 .037.037v2.424c0 .112 0 .299-.112.373a.113.113 0 0 0 0 .15 5.244 5.244 0 0 1 1.085 0c0-.038.037-.113 0-.15-.112-.074-.112-.26-.112-.373v-2.424c0-.038 0-.038.037-.038h.037c.412 0 .637.187.786.41a.114.114 0 0 0 .15 0c0-.223-.037-.559-.037-.783h-2.844Zm4.902.486c0-.113 0-.3.112-.374.037-.037.037-.112.037-.149-.187 0-.374.037-.524.037-.187 0-.336 0-.524-.037 0 .037-.037.112 0 .15.113.074.113.26.113.372v2.35c0 .112-.038.299-.113.373-.037.038-.037.112-.037.15h1.048c.973 0 1.609-.336 1.609-1.008 0-.746-.823-.97-1.497-.97h-.224V18.8Zm2.095 2.35c0 .111 0 .298-.112.372-.038.038-.038.112-.038.15.188 0 .374-.038.524-.038.187 0 .337 0 .524.037 0-.037.038-.111 0-.149-.112-.074-.112-.26-.112-.373V18.8c0-.112 0-.298.112-.373.038-.037.038-.112.038-.149-.188 0-.375.037-.524.037-.188 0-.337 0-.524-.037 0 .037-.038.112 0 .15.112.074.112.26.112.372v2.35Zm-2.095-1.082c.636 0 .86.26.86.708 0 .373-.224.56-.561.56-.187 0-.3-.075-.3-.261v-1.008Zm6.96-1.418c.374 0 .56.112.56.41 0 .373-.224.635-.785.672v-.933c0-.112.075-.149.225-.149Zm.074 2.648c-.187 0-.299-.074-.299-.26v-.97c.636.037.898.298.898.708-.037.261-.187.522-.599.522Zm-.187.373c.973-.037 1.572-.373 1.572-1.007 0-.373-.262-.708-.898-.858.486-.149.786-.447.786-.783 0-.447-.375-.709-1.235-.709h-1.272c0 .038-.038.112 0 .15.112.074.112.26.112.373v2.312c0 .112 0 .299-.112.373a.113.113 0 0 0 0 .15h1.047Zm6.998-2.461c0-.56-.45-.896-1.31-.896h-1.347c0 .038-.038.112 0 .15.112.074.112.26.112.373v2.312c0 .112 0 .299-.112.373-.038.038-.038.112-.038.15.188 0 .375-.038.562-.038.187 0 .337 0 .524.037 0-.037.037-.111 0-.149-.113-.074-.113-.26-.113-.373v-.932c.786.037 1.722-.261 1.722-1.007Zm-1.722.671v-1.194h.262c.487 0 .636.224.636.485 0 .448-.336.672-.898.709Zm3.854 1.417c-.037 0-.037 0 0 0l-.037-1.23h.15c.224 0 .599 0 .86.074-.037-.075-.037-.186-.037-.261 0-.075 0-.186.037-.261-.261.075-.598.075-.86.075h-.15v-1.008c0-.037 0-.037.037-.037h.15c.337 0 .86.037 1.048.41h.15c-.038-.223-.038-.522-.038-.746h-2.282c0 .038-.038.112 0 .15.112.074.112.26.112.373v2.312c0 .112 0 .299-.112.373-.038.038-.038.112-.038.15h2.283c0-.262.037-.56.075-.821h-.15c-.225.373-.786.447-1.123.447h-.075Zm4.64-.148c.075.186.15.372 0 .41-.037.037 0 .111 0 .149a5.644 5.644 0 0 1 1.123 0 .113.113 0 0 0 0-.15c-.112 0-.225-.26-.337-.484l-1.16-2.798a6.138 6.138 0 0 1-.823.075c-.037.037-.037.112-.037.149.299.037.261.186.187.447l-.973 2.313c-.075.187-.15.299-.225.336-.037.037 0 .112 0 .149.262-.037.524-.037.786 0 0-.037.038-.112 0-.15-.075-.037-.112-.111 0-.372l.187-.448h1.123l.15.373Zm-.71-1.828.411.97h-.786l.374-.97Zm4.677-.56v2.387c0 .15-.038.336-.15.373-.037.038-.037.112-.037.15.187 0 .411-.038.598-.038.188 0 .337 0 .524.037 0-.037.038-.111 0-.149-.112-.074-.112-.26-.112-.373v-2.312c0-.112 0-.299.112-.373.038-.038.038-.112.038-.15h-2.32c0 .038 0 .112.037.15.15.037.112.447.112.634 0 .597-.037 1.977-.598 1.977-.038 0-.113 0-.187-.038l-.113.56c.113.037.225.037.337.037 1.16 0 1.085-1.753 1.085-2.872 0-.037 0-.037.038-.037h.636v.037Zm3.405.038c0-.113 0-.3.112-.374.038-.037.038-.112.038-.149-.188 0-.374.037-.524.037-.187 0-.337 0-.524-.037 0 .037-.038.112 0 .15.112.074.112.26.112.372v2.35c0 .112-.037.299-.112.373-.038.038-.038.112-.038.15h1.048c1.01 0 1.61-.336 1.61-1.008 0-.746-.824-.97-1.498-.97h-.224V18.8Zm0 1.267c.636 0 .86.262.86.71 0 .372-.224.559-.56.559-.188 0-.3-.075-.3-.261v-1.008Zm3.667-.41v-.82c0-.112 0-.299.112-.373.038-.038.038-.112.038-.15-.188 0-.375.038-.524.038-.187 0-.337 0-.524-.038 0 .038-.038.112 0 .15.112.074.112.26.112.373v2.35c0 .111 0 .298-.112.372-.038.038-.038.112-.038.15.188 0 .375-.038.524-.038.187 0 .337 0 .524.038 0-.038.038-.112 0-.15-.112-.074-.112-.26-.112-.373v-1.044c0-.037 0-.037.037-.037h1.123v1.081c0 .112 0 .299-.112.373-.038.038-.038.112-.038.15.187 0 .374-.038.524-.038.187 0 .337 0 .524.038 0-.038.037-.112 0-.15-.112-.074-.112-.26-.112-.373v-2.35c0-.111 0-.298.112-.372.037-.038.037-.112.037-.15-.187 0-.374.038-.524.038-.187 0-.336 0-.523-.038 0 .038-.038.112 0 .15.112.074.112.26.112.373v.783c0 .037 0 .037-.038.037h-1.122Zm4.977 1.716c-.674 0-.749-.933-.749-1.343 0-.41.075-1.38.749-1.38.673 0 .748.933.748 1.343 0 .41-.075 1.38-.748 1.38Zm0 .373c1.272 0 1.571-.97 1.571-1.753 0-.783-.337-1.716-1.571-1.716-1.273 0-1.572.97-1.572 1.753 0 .784.3 1.716 1.572 1.716Zm5.088-1.007c-.15.373-.411.522-.785.522-.86 0-.936-.709-.936-1.268 0-.709.262-1.343.898-1.343.262 0 .562.075.674.56.075 0 .15.037.224 0 0-.224.038-.448.075-.71a2.073 2.073 0 0 0-.935-.26c-1.123 0-1.721.634-1.721 1.828 0 .97.486 1.64 1.609 1.64.374 0 .785-.074 1.085-.26.037-.224.075-.485.075-.71-.113-.036-.188-.036-.262 0Zm1.086-2.425c0 .262 0 .56-.038.784.075.037.15.037.15 0 .15-.224.374-.41.786-.41h.037c.038 0 .038 0 .038.037v2.424c0 .112 0 .299-.113.373a.113.113 0 0 0 0 .15 5.244 5.244 0 0 1 1.085 0c0-.038.038-.113 0-.15-.112-.074-.112-.26-.112-.373v-2.424c0-.038 0-.038.038-.038h.037c.412 0 .636.187.786.41a.114.114 0 0 0 .15 0c0-.223-.038-.559-.038-.783h-2.806Zm6.211 0-1.384 2.425v-1.94c0-.112 0-.298.112-.373.037-.037.037-.112.037-.149-.187 0-.299.037-.486.037s-.337 0-.524-.037c0 .037-.037.112 0 .15.112.074.112.26.112.372v2.35c0 .112 0 .299-.112.373-.037.038-.037.112-.037.15h.785c.113-.113.262-.374.45-.71.299-.521.636-1.081.935-1.603v1.79c0 .112 0 .299-.112.373-.038.038-.038.112-.038.15.188 0 .3-.038.487-.038s.337 0 .524.037c0-.037.037-.111 0-.149-.113-.074-.113-.26-.113-.373v-2.312c0-.112 0-.299.113-.373.037-.038.037-.112.037-.15h-.786Z"/>
</svg>
