<svg xmlns="http://www.w3.org/2000/svg" width="38" height="42" fill="currentColor" viewBox="0 0 38 42">
  <path fill-rule="evenodd" d="M37.208 33.197c-.075-.186-.262-.373-.45-.485a504.083 504.083 0 0 1-5.5-3.954.867.867 0 0 1-.299-.447c-.15-.41-.412-.597-.86-.597a.86.86 0 0 1-.524-.15c-.262-.186-.824-.559-1.61-1.118.45-.373.973-.82 1.535-1.38 1.16-1.082 3.742-4.252 3.742-4.252s-2.133-2.574-3.705-3.805c-.636-.485-1.197-1.045-1.87-1.604.261-.112.523-.224.822-.261.262-.037.45-.448.636-.671.3 0 .674.074.898-.075.225-.15.337-.485.487-.783.15.111.337.26.561.41 1.01.746 2.133 1.082 3.405.858.187-.037.45-.037.636.037.45.15 1.01-.112 1.01-.56 0-.447.263-.783.412-1.156.15-.373.3-.783.337-1.193.187-1.679-.449-3.134-1.646-4.253-1.123-1.081-2.47-1.603-4.079-1.193-.112.037-.262-.037-.374-.075-.599-.224-1.123.15-1.123.784 0 .111 0 .26-.075.373-.898 1.305-.86 2.685-.299 4.103.038.111.075.186.112.335-.86-.224-1.235.112-1.235 1.007-.748-.037-.86.038-1.16.746-.037.112-.15.187-.224.262-.075.074-.224.149-.374.26a19.004 19.004 0 0 0-2.881-1.678c-3.443-1.604-6.736-.858-9.018.112-.936.373-2.058 1.044-3.069 1.79-.037-.037-.037-.037-.075-.037-.411-.298-.898-.522-1.085-1.119-.112-.41-.598-.41-.973-.373 0-.895-.374-1.23-1.234-1.007.074-.15.112-.261.15-.41.486-1.306.523-2.611-.225-3.842-.112-.15-.15-.373-.15-.56 0-.485-.449-.97-.898-.783-.412.15-.786 0-1.197 0-.45 0-.936-.037-1.347.075C2.895 6.9 1.81 7.87 1.099 9.213.35 10.705.2 12.197 1.174 13.69c.074.112.074.261.074.41 0 .597.524.97 1.086.784.112-.037.299-.112.411-.075 1.534.41 2.807-.074 3.93-1.044.074-.075.186-.15.261-.224.075.858.412 1.044 1.385.858.187.671.299.746 1.047.82.113 0 .262.112.374.187.075.037.188.112.3.224-.636.485-1.16.97-1.572 1.38-1.31 1.268-3.742 4.103-3.742 4.103s2.732 3.133 3.78 4.103c.299.261.673.634 1.122 1.007-.748.522-1.31.932-1.571 1.082a.902.902 0 0 1-.45.112c-.411 0-.748.186-.897.56-.075.186-.225.41-.375.521L.5 32.637c-.524.374-.636.821-.337 1.232.3.41.749.447 1.273.074.261-.186.523-.373.823-.597.561.821 1.122 1.567 1.684 2.35.15-.112.299-.224.411-.298a7.31 7.31 0 0 1 .374-.261c0-.075 0-.112-.037-.112-.187-.261-.337-.485-.524-.746-.262-.41-.262-.746.038-.97.299-.224.673-.112.935.261.187.261.374.56.561.82.374-.26.674-.484.973-.67-.075-.112-.075-.15-.075-.15-.187-.26-.336-.485-.524-.746-.261-.373-.224-.783.075-.97.3-.186.636-.074.898.261.187.262.375.56.599.821.3-.224.561-.41.898-.634-.561-.783-1.085-1.567-1.646-2.35.336-.187.561-.485.973-.448.336.038.636-.223.748-.596a.596.596 0 0 1 .262-.336c.224-.15.935-.671 1.946-1.38a14.16 14.16 0 0 0 3.816 2.126c2.882 1.194 5.838 1.194 8.719.037 1.197-.634 2.133-1.082 3.293-1.902.973.709 1.721 1.23 2.02 1.455.15.111.225.298.337.447.187.187.412.485.636.522.45 0 .711.262 1.048.485.262.187.374.448.225.746-.113.299-.375.373-.674.336-.075 0-.225-.037-.262.037l-.898 1.231c.599.41 1.123.784 1.646 1.194.113-.15.188-.261.262-.373.075-.112.188-.261.262-.373.262-.336.599-.41.898-.224.3.187.337.56.075.933-.187.26-.374.484-.524.746.599.41 1.123.783 1.647 1.193.337-.447.636-.858.935-1.305-.224-.299-.337-.634 0-.933.225-.224.524-.186.973.112l.786.56c.337.186.673.186.935-.075.3-.336.375-.634.225-.97ZM30.473 8.766c.898.186 1.16 0 1.31-.896 1.16-.335 2.32.336 2.581 1.455.038.224.15.373.374.485a1.995 1.995 0 0 1 .524 2.91c-.86-.187-1.123 0-1.272.895-.823.26-1.759-.038-2.245-.71-.15-.223-.113-.297.112-.447.224-.186.524-.41.561-.671.038-.261-.112-.634-.3-.82-.298-.262-.71-.15-1.047.111-.411.299-.486.299-.71-.149-.412-.783-.3-1.492.111-2.163Zm-23.65.82c-.186.299-.41.56-.598.858.674.709.823 1.268.412 1.828-.412.522-.973.56-1.759.149-.486.448-.673 1.268-1.46 1.306-.149-.336-.224-.71-.41-.97-.263-.299-.674-.224-1.049.037-.299-.858.412-1.306.711-1.94-.673-.56-.785-1.156-.449-1.715.375-.56 1.01-.635 1.796-.224.487-.448.711-1.306 1.61-1.306-.113.41-.075.746.299 1.007.337.224.673.15 1.01-.074.15.373.075.746-.112 1.044Zm1.91 9.4c3.03-3.432 6.36-5.968 11.15-5.67 3.293.224 8.045 3.208 9.018 5.371-2.208-1.865-2.806-2.014-4.416-2.424 1.01.56 2.657 1.305 3.705 2.947-.075.074-.45.56-.524.634-5.8-4.215-11.6-4.14-17.4.112 0 0-.374-.224-.449-.336 1.235-1.716 2.919-2.611 3.892-3.133-2.545.634-4.715 2.685-4.715 2.685l-.262-.186Zm5.275 1.454c-.15-.447-.3-1.007-.374-1.342 0 0 .711-.41 1.123-.522.823.26 3.068 1.23 3.068 1.23s-1.646 1.008-2.058 1.343c1.01 1.53 2.47 2.052 4.116 1.679 2.208-.485 3.03-2.164 3.106-4.252 1.122.037 1.347.596 1.122 1.566-.561 2.275-2.619 3.991-5.014 4.066-2.245.074-4.378-1.492-5.089-3.767Zm4.528 4.476c-2.994.299-5.538-1.94-5.576-5.147 1.01 2.947 2.732 4.663 5.576 5.148Zm6.586 1.306c-6.324 4.364-12.124 1.194-15.94-3.432-.113-.149 0-.522 0-.783.111 0 .186 0 .299.037.224.336.449.672.785 1.157v-1.455a.821.821 0 0 0 .188-.112c.112.261.224.485.486 1.007.075-.746.112-1.044.187-1.53.3.374.486.635.786 1.008-.038-.485-.038-.82-.075-1.156 1.384 3.133 3.592 5.072 7.072 5.147 3.555.037 5.8-1.865 7.222-5.073.037.41.037.82.075 1.306.262-.299.449-.522.748-.858.038.485.075.783.112 1.23.262-.26.412-.447.711-.745.075.522.113.895.15 1.454.374-.596.599-1.007.86-1.38.113.038.188.112.3.15-.112.298-.187.634-.374.858-1.16 1.044-2.283 2.238-3.592 3.17ZM19.846 9.288c-.262-2.052-.487-8.691-.487-8.691L18.873 0l-.487.634c-.037.634-.224 7.721-.486 8.654l.935.932c.075 0 .524-.447 1.01-.932Zm2.956.485c.374-1.642 2.095-6.826 2.095-6.826l-.187-.672-.524.41S21.83 8.617 21.38 9.25l.449.97c-.038 0 .449-.224.973-.447Zm-6.81.522.448-.97c-.785-1.492-2.806-6.565-2.806-6.565l-.599-.41-.15.671s2.021 6.043 2.096 6.826l1.01.448ZM17.974 32.6c.262 2.052.486 8.691.486 8.691l.524.709.449-.709s.224-7.758.486-8.69l-.935-.933c-.075-.037-.524.41-1.01.932Zm-2.957-.485c-.374 1.642-2.095 6.826-2.095 6.826l.187.672.524-.41s2.357-5.931 2.806-6.565l-.449-.97c0-.037-.486.186-.973.447Zm6.773-.522-.449.97c.786 1.492 2.807 6.565 2.807 6.565l.598.41.15-.671s-2.02-6.043-2.095-6.826l-1.01-.448Z" clip-rule="evenodd"/>
</svg>
